<svg xmlns="http://www.w3.org/2000/svg" width="2" height="18" viewBox="0 0 2 18">
  <defs>
    <style>
      .cls-1 {
        fill: silver;
      }

      .cls-1, .cls-2 {
        fill-rule: evenodd;
      }

      .cls-2 {
        fill: #fff;
      }
    </style>
  </defs>
  <path class="cls-1" d="M2,0H1V1H2V0ZM2,2H1V3H2V2ZM2,4H1V5H2V4ZM2,6H1V7H2V6ZM2,8H1V9H2V8Zm0,2H1v1H2V10Zm0,2H1v1H2V12Zm0,2H1v1H2V14Zm0,2H1v1H2V16ZM1,1H0V2H1V1ZM1,3H0V4H1V3ZM1,5H0V6H1V5ZM1,7H0V8H1V7ZM1,9H0v1H1V9Zm0,2H0v1H1V11Zm0,2H0v1H1V13Zm0,2H0v1H1V15Zm0,2H0v1H1V17Z"/>
  <path class="cls-2" d="M2,1H1V2H2V1ZM2,3H1V4H2V3ZM2,5H1V6H2V5ZM2,7H1V8H2V7ZM2,9H1v1H2V9Zm0,2H1v1H2V11Zm0,2H1v1H2V13Zm0,2H1v1H2V15Zm0,2H1v1H2V17ZM1,0H0V1H1V0ZM1,2H0V3H1V2ZM1,4H0V5H1V4ZM1,6H0V7H1V6ZM1,8H0V9H1V8Zm0,2H0v1H1V10Zm0,2H0v1H1V12Zm0,2H0v1H1V14Zm0,2H0v1H1V16Z"/>
</svg>
